<?xml version="1.0" encoding="UTF-8"?><svg xmlns="http://www.w3.org/2000/svg" xmlns:xlink="http://www.w3.org/1999/xlink" fill-opacity="1" color-rendering="auto" color-interpolation="auto" text-rendering="auto" stroke="black" stroke-linecap="square" width="560" stroke-miterlimit="10" shape-rendering="auto" stroke-opacity="1" fill="black" stroke-dasharray="none" font-weight="normal" stroke-width="1" height="158" font-family="'Dialog'" font-style="normal" stroke-linejoin="miter" font-size="12px" stroke-dashoffset="0" image-rendering="auto">
  <!--Generated by ySVG 2.6-->
  <defs id="genericDefs"/>
  <g>
    <defs id="defs1">
      <clipPath clipPathUnits="userSpaceOnUse" id="clipPath1">
        <path d="M0 0 L560 0 L560 158 L0 158 L0 0 Z"/>
      </clipPath>
      <clipPath clipPathUnits="userSpaceOnUse" id="clipPath2">
        <path d="M55 65 L615 65 L615 223 L55 223 L55 65 Z"/>
      </clipPath>
      <clipPath clipPathUnits="userSpaceOnUse" id="clipPath3">
        <path d="M0 0 L0 19 L39 19 L39 0 Z"/>
      </clipPath>
      <script type="text/ecmascript"><![CDATA[      var SVGDocument = null;
      var SVGRoot = null;
      var TrueCoords = null;
      var lastElement = null;
      var initialized = null;
      var tipGroup;
      function Init(evt)
      {
         SVGDocument = evt.target.ownerDocument;
         SVGRoot = SVGDocument.documentElement;
         TrueCoords = SVGRoot.createSVGPoint();
         initialized = evt;
      };
      function GetTrueCoords(evt)
      {
         var newScale = SVGRoot.currentScale;
         var translation = SVGRoot.currentTranslate;
         TrueCoords.x = (evt.clientX - translation.x)/newScale;
         TrueCoords.y = (evt.clientY - translation.y)/newScale;
      };
      function HideTooltip( evt )
      {
         if(initialized == null) {
           Init(evt);
         }
         if(tipGroup != null) {
           tipGroup.setAttributeNS(null, 'visibility', 'hidden');
         }
      };
      function ShowTooltip( evt )
      {
         if(initialized == null) {
           Init(evt);
         }
         GetTrueCoords( evt );
         var tipScale = 1/SVGRoot.currentScale;
         var targetElement = evt.currentTarget;
         if ( lastElement != targetElement )
         {
            var targetId = targetElement.getAttributeNS(null, 'id');
            var tipId = 'tooltip.' + targetId;
            tipGroup = SVGDocument.getElementById(tipId);
            var xPos = TrueCoords.x + (10 * tipScale);
            var yPos = TrueCoords.y + (10 * tipScale);
            tipGroup.setAttributeNS(null, 'transform', 'translate(' + xPos + ',' + yPos + ') scale(' + tipScale + ')');
            tipGroup.setAttributeNS(null, 'visibility', 'visible');
         }
      };
]]></script>
    </defs>
    <g fill="white" text-rendering="geometricPrecision" shape-rendering="geometricPrecision" transform="translate(-55,-65)" stroke="white">
      <rect x="55" width="560" height="158" y="65" clip-path="url(#clipPath2)" stroke="none"/>
    </g>
    <g id="y.node.0">
      <g>
        <g text-rendering="geometricPrecision" stroke-miterlimit="1.45" shape-rendering="geometricPrecision" font-family="sans-serif" transform="matrix(1,0,0,1,-55,-65)" stroke-linecap="butt">
          <text x="201.568" xml:space="preserve" y="99.656" stroke="none">2</text>
        </g>
      </g>
      <g text-rendering="geometricPrecision" stroke-miterlimit="1.45" shape-rendering="geometricPrecision" transform="matrix(1,0,0,1,-55,-65)" stroke-linecap="butt">
        <circle fill="none" r="15" cx="205" cy="95"/>
      </g>
    </g>
    <g id="y.node.1">
      <g>
        <g text-rendering="geometricPrecision" stroke-miterlimit="1.45" shape-rendering="geometricPrecision" font-family="sans-serif" transform="matrix(1,0,0,1,-55,-65)" stroke-linecap="butt">
          <text x="141.568" xml:space="preserve" y="99.656" stroke="none">1</text>
        </g>
      </g>
      <g text-rendering="geometricPrecision" stroke-miterlimit="1.45" shape-rendering="geometricPrecision" transform="matrix(1,0,0,1,-55,-65)" stroke-linecap="butt">
        <circle fill="none" r="15" cx="145" cy="95"/>
      </g>
    </g>
    <g onmouseout="HideTooltip(evt)" id="y.node.2" onmousemove="ShowTooltip(evt)">
      <g/>
    </g>
    <g id="y.node.3">
      <g>
        <g text-rendering="geometricPrecision" stroke-miterlimit="1.45" shape-rendering="geometricPrecision" font-family="sans-serif" transform="matrix(1,0,0,1,-55,-65)" stroke-linecap="butt">
          <text x="320.44" xml:space="preserve" y="99.656" stroke="none">N</text>
        </g>
      </g>
      <g text-rendering="geometricPrecision" stroke-miterlimit="1.45" shape-rendering="geometricPrecision" transform="matrix(1,0,0,1,-55,-65)" stroke-linecap="butt">
        <circle fill="none" r="15" cx="325" cy="95"/>
      </g>
    </g>
    <g id="y.node.4">
      <g>
        <g text-rendering="geometricPrecision" stroke-miterlimit="1.45" shape-rendering="geometricPrecision" font-family="sans-serif" transform="matrix(1,0,0,1,-55,-65)" stroke-linecap="butt">
          <text x="201.568" xml:space="preserve" y="197.401" stroke="none">2</text>
        </g>
      </g>
      <g text-rendering="geometricPrecision" stroke-miterlimit="1.45" shape-rendering="geometricPrecision" transform="matrix(1,0,0,1,-55,-65)" stroke-linecap="butt">
        <circle fill="none" r="15" cx="205" cy="192.745"/>
      </g>
    </g>
    <g id="y.node.5">
      <g>
        <g text-rendering="geometricPrecision" stroke-miterlimit="1.45" shape-rendering="geometricPrecision" font-family="sans-serif" transform="matrix(1,0,0,1,-55,-65)" stroke-linecap="butt">
          <text x="141.568" xml:space="preserve" y="197.401" stroke="none">1</text>
        </g>
      </g>
      <g text-rendering="geometricPrecision" stroke-miterlimit="1.45" shape-rendering="geometricPrecision" transform="matrix(1,0,0,1,-55,-65)" stroke-linecap="butt">
        <circle fill="none" r="15" cx="145" cy="192.745"/>
      </g>
    </g>
    <g onmouseout="HideTooltip(evt)" id="y.node.6" onmousemove="ShowTooltip(evt)">
      <g/>
    </g>
    <g id="y.node.7">
      <g>
        <g text-rendering="geometricPrecision" stroke-miterlimit="1.45" shape-rendering="geometricPrecision" font-family="sans-serif" transform="matrix(1,0,0,1,-55,-65)" stroke-linecap="butt">
          <text x="320.44" xml:space="preserve" y="197.401" stroke="none">N</text>
        </g>
      </g>
      <g text-rendering="geometricPrecision" stroke-miterlimit="1.45" shape-rendering="geometricPrecision" transform="matrix(1,0,0,1,-55,-65)" stroke-linecap="butt">
        <circle fill="none" r="15" cx="325" cy="192.745"/>
      </g>
    </g>
    <g id="y.node.8">
      <g>
        <g text-rendering="geometricPrecision" stroke-miterlimit="1.45" shape-rendering="geometricPrecision" font-family="sans-serif" transform="matrix(1,0,0,1,-55,-65)" stroke-linecap="butt">
          <text x="79.834" xml:space="preserve" y="99.656" stroke="none">a)</text>
        </g>
      </g>
    </g>
    <g id="y.node.9">
      <g>
        <g text-rendering="geometricPrecision" stroke-miterlimit="1.45" shape-rendering="geometricPrecision" font-family="sans-serif" transform="matrix(1,0,0,1,-55,-65)" stroke-linecap="butt">
          <text x="79.51" xml:space="preserve" y="197.401" stroke="none">b)</text>
        </g>
      </g>
    </g>
    <g id="y.node.10">
      <g/>
      <g text-rendering="geometricPrecision" stroke-miterlimit="1.45" shape-rendering="geometricPrecision" transform="matrix(1,0,0,1,-55,-65)" stroke-linecap="butt">
        <circle fill="none" r="15" cx="470.288" cy="95"/>
      </g>
    </g>
    <g id="y.node.11">
      <g>
        <g text-rendering="geometricPrecision" stroke-miterlimit="1.45" shape-rendering="geometricPrecision" font-family="sans-serif" transform="matrix(1,0,0,1,-55,-65)" stroke-linecap="butt">
          <text x="408.68" xml:space="preserve" y="99.656" stroke="none">c)</text>
        </g>
      </g>
    </g>
    <g id="y.node.12">
      <g/>
      <g text-rendering="geometricPrecision" stroke-miterlimit="1.45" shape-rendering="geometricPrecision" transform="matrix(1,0,0,1,-55,-65)" stroke-linecap="butt">
        <circle fill="none" r="15" cx="527.216" cy="95"/>
      </g>
    </g>
    <g id="y.node.13">
      <g/>
      <g text-rendering="geometricPrecision" stroke-miterlimit="1.45" shape-rendering="geometricPrecision" transform="matrix(1,0,0,1,-55,-65)" stroke-linecap="butt">
        <circle fill="none" r="15" cx="584.144" cy="95"/>
      </g>
    </g>
    <g id="y.node.14">
      <g/>
      <g text-rendering="geometricPrecision" stroke-miterlimit="1.45" shape-rendering="geometricPrecision" transform="matrix(1,0,0,1,-55,-65)" stroke-linecap="butt">
        <circle fill="none" r="15" cx="470.288" cy="155"/>
      </g>
    </g>
    <g id="y.node.15">
      <g/>
      <g text-rendering="geometricPrecision" stroke-miterlimit="1.45" shape-rendering="geometricPrecision" transform="matrix(1,0,0,1,-55,-65)" stroke-linecap="butt">
        <circle fill="none" r="15" cx="527.216" cy="155"/>
      </g>
    </g>
    <g id="y.node.16">
      <g/>
      <g text-rendering="geometricPrecision" stroke-miterlimit="1.45" shape-rendering="geometricPrecision" transform="matrix(1,0,0,1,-55,-65)" stroke-linecap="butt">
        <circle fill="none" r="15" cx="584.144" cy="155"/>
      </g>
    </g>
    <g id="y.edge.0">
      <g text-rendering="geometricPrecision" stroke-miterlimit="1.45" shape-rendering="geometricPrecision" transform="matrix(1,0,0,1,-55,-65)" stroke-linecap="butt">
        <path fill="none" d="M160 95 L182 95"/>
      </g>
      <g text-rendering="geometricPrecision" stroke-miterlimit="1.45" shape-rendering="geometricPrecision" transform="matrix(1,0,0,1,-55,-65)" stroke-linecap="butt">
        <path d="M190 95 L178 90 L181 95 L178 100 Z" stroke="none"/>
      </g>
    </g>
    <g id="y.edge.1">
      <g text-rendering="geometricPrecision" stroke-miterlimit="1.45" shape-rendering="geometricPrecision" transform="matrix(1,0,0,1,-55,-65)" stroke-linecap="butt">
        <path fill="none" d="M220 95 L242 95"/>
        <path d="M250 95 L238 90 L241 95 L238 100 Z" stroke="none"/>
      </g>
    </g>
    <g id="y.edge.2">
      <g text-rendering="geometricPrecision" stroke-miterlimit="1.45" shape-rendering="geometricPrecision" transform="matrix(1,0,0,1,-55,-65)" stroke-linecap="butt">
        <path fill="none" d="M280 95 L302 95"/>
        <path d="M310 95 L298 90 L301 95 L298 100 Z" stroke="none"/>
      </g>
    </g>
    <g id="y.edge.3">
      <g text-rendering="geometricPrecision" stroke-miterlimit="1.45" shape-rendering="geometricPrecision" transform="matrix(1,0,0,1,-55,-65)" stroke-linecap="butt">
        <path fill="none" d="M314.0569 105.2591 L313.75 105.5469 L302.5 114.6875 L291.25 122.4219 L280 128.75 L268.75 133.6719 L257.5 137.1875 L246.25 139.2969 L235 140 L223.75 139.2969 L212.5 137.1875 L201.25 133.6719 L190 128.75 L178.75 122.4219 L167.5 114.6875 L162.1331 110.3269 L162.0602 110.2585"/>
        <path d="M155.8658 105.196 L161.9933 116.6613 L162.8345 110.8914 L168.3215 108.9183 Z" stroke="none"/>
      </g>
    </g>
    <g id="y.edge.4">
      <g text-rendering="geometricPrecision" stroke-miterlimit="1.45" shape-rendering="geometricPrecision" transform="matrix(1,0,0,1,-55,-65)" stroke-linecap="butt">
        <path fill="none" d="M160 192.745 L190 192.745"/>
      </g>
    </g>
    <g id="y.edge.5">
      <g text-rendering="geometricPrecision" stroke-miterlimit="1.45" shape-rendering="geometricPrecision" transform="matrix(1,0,0,1,-55,-65)" stroke-linecap="butt">
        <path fill="none" d="M220 192.745 L250 192.745"/>
      </g>
    </g>
    <g id="y.edge.6">
      <g text-rendering="geometricPrecision" stroke-miterlimit="1.45" shape-rendering="geometricPrecision" transform="matrix(1,0,0,1,-55,-65)" stroke-linecap="butt">
        <path fill="none" d="M280 192.745 L310 192.745"/>
      </g>
    </g>
    <g id="y.edge.7">
      <g text-rendering="geometricPrecision" stroke-miterlimit="1.45" shape-rendering="geometricPrecision" transform="matrix(1,0,0,1,-55,-65)" stroke-linecap="butt">
        <path fill="none" d="M485.288 95 L512.216 95"/>
      </g>
    </g>
    <g id="y.edge.8">
      <g text-rendering="geometricPrecision" stroke-miterlimit="1.45" shape-rendering="geometricPrecision" transform="matrix(1,0,0,1,-55,-65)" stroke-linecap="butt">
        <path fill="none" d="M542.216 95 L569.144 95"/>
      </g>
    </g>
    <g id="y.edge.12">
      <g text-rendering="geometricPrecision" stroke-miterlimit="1.45" shape-rendering="geometricPrecision" transform="matrix(1,0,0,1,-55,-65)" stroke-linecap="butt">
        <path fill="none" d="M470.288 110 L470.288 140"/>
      </g>
    </g>
    <g id="y.edge.10">
      <g text-rendering="geometricPrecision" stroke-miterlimit="1.45" shape-rendering="geometricPrecision" transform="matrix(1,0,0,1,-55,-65)" stroke-linecap="butt">
        <path fill="none" d="M485.288 155 L512.216 155"/>
      </g>
    </g>
    <g id="y.edge.11">
      <g text-rendering="geometricPrecision" stroke-miterlimit="1.45" shape-rendering="geometricPrecision" transform="matrix(1,0,0,1,-55,-65)" stroke-linecap="butt">
        <path fill="none" d="M527.216 110 L527.216 140"/>
      </g>
    </g>
    <g id="y.edge.9">
      <g text-rendering="geometricPrecision" stroke-miterlimit="1.45" shape-rendering="geometricPrecision" transform="matrix(1,0,0,1,-55,-65)" stroke-linecap="butt">
        <path fill="none" d="M542.216 155 L569.144 155"/>
      </g>
    </g>
    <g id="y.edge.13">
      <g text-rendering="geometricPrecision" stroke-miterlimit="1.45" shape-rendering="geometricPrecision" transform="matrix(1,0,0,1,-55,-65)" stroke-linecap="butt">
        <path fill="none" d="M584.144 110 L584.144 140"/>
      </g>
    </g>
    <g visibility="hidden" id="tooltip.y.node.2" pointer-events="none">
      <g fill="rgb(195,212,232)" text-rendering="geometricPrecision" shape-rendering="geometricPrecision" font-family="sans-serif" stroke="rgb(195,212,232)">
        <rect x="0" width="39" height="19" y="0" clip-path="url(#clipPath3)" stroke="none"/>
        <text fill="black" x="4" xml:space="preserve" y="14" clip-path="url(#clipPath3)" stroke="none">ghost</text>
      </g>
      <g fill="rgb(49,106,196)" text-rendering="geometricPrecision" shape-rendering="geometricPrecision" font-family="sans-serif" stroke="rgb(49,106,196)">
        <path d="M0 0 L39 0 L39 19 L0 19 L0 0 ZM1 1 L38 1 L38 18 L1 18 L1 1 Z" fill-rule="evenodd" clip-path="url(#clipPath3)" stroke="none"/>
      </g>
    </g>
    <g visibility="hidden" id="tooltip.y.node.6" pointer-events="none">
      <g fill="rgb(195,212,232)" text-rendering="geometricPrecision" shape-rendering="geometricPrecision" font-family="sans-serif" stroke="rgb(195,212,232)">
        <rect x="0" width="39" height="19" y="0" clip-path="url(#clipPath3)" stroke="none"/>
        <text fill="black" x="4" xml:space="preserve" y="14" clip-path="url(#clipPath3)" stroke="none">ghost</text>
      </g>
      <g fill="rgb(49,106,196)" text-rendering="geometricPrecision" shape-rendering="geometricPrecision" font-family="sans-serif" stroke="rgb(49,106,196)">
        <path d="M0 0 L39 0 L39 19 L0 19 L0 0 ZM1 1 L38 1 L38 18 L1 18 L1 1 Z" fill-rule="evenodd" clip-path="url(#clipPath3)" stroke="none"/>
      </g>
    </g>
  </g>
</svg>
