<svg class="main-svg" xmlns="http://www.w3.org/2000/svg" xmlns:xlink="http://www.w3.org/1999/xlink" width="600" height="600" style="" viewBox="0 0 600 600"><rect x="0" y="0" width="600" height="600" style="fill: rgb(255, 255, 255); fill-opacity: 1;"/><defs id="defs-667f44"><g class="clips"><clipPath id="clip667f44xyplot" class="plotclip"><rect width="598" height="598"/></clipPath><clipPath class="axesclip" id="clip667f44x"><rect x="1" y="0" width="598" height="600"/></clipPath><clipPath class="axesclip" id="clip667f44y"><rect x="0" y="1" width="600" height="598"/></clipPath><clipPath class="axesclip" id="clip667f44xy"><rect x="1" y="1" width="598" height="598"/></clipPath></g><g class="gradients"/><g class="patterns"/></defs><g class="bglayer"/><g class="layer-below"><g class="imagelayer"/><g class="shapelayer"/></g><g class="cartesianlayer"><g class="subplot xy"><g class="layer-subplot"><g class="shapelayer"/><g class="imagelayer"/></g><g class="minor-gridlayer"><g class="x"/><g class="y"/></g><g class="gridlayer"><g class="x"/><g class="y"/></g><g class="zerolinelayer"/><g class="layer-between"><g class="shapelayer"/><g class="imagelayer"/></g><path class="xlines-below"/><path class="ylines-below"/><g class="overlines-below"/><g class="xaxislayer-below"/><g class="yaxislayer-below"/><g class="overaxes-below"/><g class="overplot"><g class="xy" transform="translate(1,1)" clip-path="url(#clip667f44xyplot)"><g class="scatterlayer mlayer"><g class="trace scatter trace30d8bc" style="stroke-miterlimit: 2; opacity: 1;"><g class="fills"/><g class="errorbars"/><g class="lines"><path class="js-line" d="M408.58,290.12L383.81,248.83" style="vector-effect: none; fill: none; stroke: rgb(136, 136, 136); stroke-opacity: 0.8; stroke-width: 3.38382px; opacity: 1;"/></g><g class="points"/><g class="text"/></g><g class="trace scatter tracee6ee5c" style="stroke-miterlimit: 2; opacity: 1;"><g class="fills"/><g class="errorbars"/><g class="lines"><path class="js-line" d="M408.58,290.12L484.85,364.08" style="vector-effect: none; fill: none; stroke: rgb(136, 136, 136); stroke-opacity: 0.8; stroke-width: 3.05086px; opacity: 1;"/></g><g class="points"/><g class="text"/></g><g class="trace scatter trace66300a" style="stroke-miterlimit: 2; opacity: 1;"><g class="fills"/><g class="errorbars"/><g class="lines"><path class="js-line" d="M408.58,290.12L383.46,293.03" style="vector-effect: none; fill: none; stroke: rgb(136, 136, 136); stroke-opacity: 0.8; stroke-width: 3.5px; opacity: 1;"/></g><g class="points"/><g class="text"/></g><g class="trace scatter trace2a97e3" style="stroke-miterlimit: 2; opacity: 1;"><g class="fills"/><g class="errorbars"/><g class="lines"><path class="js-line" d="M49.04,317.33L36.15,283.8" style="vector-effect: none; fill: none; stroke: rgb(136, 136, 136); stroke-opacity: 0.8; stroke-width: 3.43177px; opacity: 1;"/></g><g class="points"/><g class="text"/></g><g class="trace scatter trace078365" style="stroke-miterlimit: 2; opacity: 1;"><g class="fills"/><g class="errorbars"/><g class="lines"><path class="js-line" d="M49.04,317.33L38.52,357.14" style="vector-effect: none; fill: none; stroke: rgb(136, 136, 136); stroke-opacity: 0.8; stroke-width: 3.40137px; opacity: 1;"/></g><g class="points"/><g class="text"/></g><g class="trace scatter tracec554a9" style="stroke-miterlimit: 2; opacity: 1;"><g class="fills"/><g class="errorbars"/><g class="lines"><path class="js-line" d="M49.04,317.33L176.6,251.03" style="vector-effect: none; fill: none; stroke: rgb(136, 136, 136); stroke-opacity: 0.8; stroke-width: 2.94244px; opacity: 1;"/></g><g class="points"/><g class="text"/></g><g class="trace scatter trace62e81e" style="stroke-miterlimit: 2; opacity: 1;"><g class="fills"/><g class="errorbars"/><g class="lines"><path class="js-line" d="M36.15,283.8L69.04,263.75" style="vector-effect: none; fill: none; stroke: rgb(136, 136, 136); stroke-opacity: 0.8; stroke-width: 3.46395px; opacity: 1;"/></g><g class="points"/><g class="text"/></g><g class="trace scatter trace422f31" style="stroke-miterlimit: 2; opacity: 1;"><g class="fills"/><g class="errorbars"/><g class="lines"><path class="js-line" d="M36.15,283.8L176.6,251.03" style="vector-effect: none; fill: none; stroke: rgb(136, 136, 136); stroke-opacity: 0.8; stroke-width: 3.08339px; opacity: 1;"/></g><g class="points"/><g class="text"/></g><g class="trace scatter trace0f07a8" style="stroke-miterlimit: 2; opacity: 1;"><g class="fills"/><g class="errorbars"/><g class="lines"><path class="js-line" d="M38.52,357.14L311.33,313.52" style="vector-effect: none; fill: none; stroke: rgb(136, 136, 136); stroke-opacity: 0.8; stroke-width: 2.2512px; opacity: 1;"/></g><g class="points"/><g class="text"/></g><g class="trace scatter tracec6594f" style="stroke-miterlimit: 2; opacity: 1;"><g class="fills"/><g class="errorbars"/><g class="lines"><path class="js-line" d="M383.46,293.03L383.81,248.83" style="vector-effect: none; fill: none; stroke: rgb(136, 136, 136); stroke-opacity: 0.8; stroke-width: 3.37853px; opacity: 1;"/></g><g class="points"/><g class="text"/></g><g class="trace scatter trace9bda04" style="stroke-miterlimit: 2; opacity: 1;"><g class="fills"/><g class="errorbars"/><g class="lines"><path class="js-line" d="M383.46,293.03L484.85,364.08" style="vector-effect: none; fill: none; stroke: rgb(136, 136, 136); stroke-opacity: 0.8; stroke-width: 3.00184px; opacity: 1;"/></g><g class="points"/><g class="text"/></g><g class="trace scatter trace3e3fa0" style="stroke-miterlimit: 2; opacity: 1;"><g class="fills"/><g class="errorbars"/><g class="lines"><path class="js-line" d="M383.46,293.03L311.33,313.52" style="vector-effect: none; fill: none; stroke: rgb(136, 136, 136); stroke-opacity: 0.8; stroke-width: 3.38461px; opacity: 1;"/></g><g class="points"/><g class="text"/></g><g class="trace scatter trace39b1f7" style="stroke-miterlimit: 2; opacity: 1;"><g class="fills"/><g class="errorbars"/><g class="lines"><path class="js-line" d="M360.7,164.17L385.77,139.88" style="vector-effect: none; fill: none; stroke: rgb(136, 136, 136); stroke-opacity: 0.8; stroke-width: 3.45967px; opacity: 1;"/></g><g class="points"/><g class="text"/></g><g class="trace scatter trace2de422" style="stroke-miterlimit: 2; opacity: 1;"><g class="fills"/><g class="errorbars"/><g class="lines"><path class="js-line" d="M360.7,164.17L383.81,248.83" style="vector-effect: none; fill: none; stroke: rgb(136, 136, 136); stroke-opacity: 0.8; stroke-width: 3.03698px; opacity: 1;"/></g><g class="points"/><g class="text"/></g><g class="trace scatter tracee3990b" style="stroke-miterlimit: 2; opacity: 1;"><g class="fills"/><g class="errorbars"/><g class="lines"><path class="js-line" d="M360.7,164.17L445.26,151.04" style="vector-effect: none; fill: none; stroke: rgb(136, 136, 136); stroke-opacity: 0.8; stroke-width: 3.36484px; opacity: 1;"/></g><g class="points"/><g class="text"/></g><g class="trace scatter trace53cf63" style="stroke-miterlimit: 2; opacity: 1;"><g class="fills"/><g class="errorbars"/><g class="lines"><path class="js-line" d="M360.7,164.17L301.28,144.68" style="vector-effect: none; fill: none; stroke: rgb(136, 136, 136); stroke-opacity: 0.8; stroke-width: 3.41878px; opacity: 1;"/></g><g class="points"/><g class="text"/></g><g class="trace scatter traceaf6a6a" style="stroke-miterlimit: 2; opacity: 1;"><g class="fills"/><g class="errorbars"/><g class="lines"><path class="js-line" d="M276.3,36.15L301.28,144.68" style="vector-effect: none; fill: none; stroke: rgb(136, 136, 136); stroke-opacity: 0.8; stroke-width: 2.77103px; opacity: 1;"/></g><g class="points"/><g class="text"/></g><g class="trace scatter trace03a781" style="stroke-miterlimit: 2; opacity: 1;"><g class="fills"/><g class="errorbars"/><g class="lines"><path class="js-line" d="M445.26,151.04L276.3,36.15" style="vector-effect: none; fill: none; stroke: rgb(136, 136, 136); stroke-opacity: 0.8; stroke-width: 2.31523px; opacity: 1;"/></g><g class="points"/><g class="text"/></g><g class="trace scatter tracef0700a" style="stroke-miterlimit: 2; opacity: 1;"><g class="fills"/><g class="errorbars"/><g class="lines"><path class="js-line" d="M445.26,151.04L383.81,248.83" style="vector-effect: none; fill: none; stroke: rgb(136, 136, 136); stroke-opacity: 0.8; stroke-width: 2.84532px; opacity: 1;"/></g><g class="points"/><g class="text"/></g><g class="trace scatter trace33e2e9" style="stroke-miterlimit: 2; opacity: 1;"><g class="fills"/><g class="errorbars"/><g class="lines"><path class="js-line" d="M445.26,151.04L561.85,192.78" style="vector-effect: none; fill: none; stroke: rgb(136, 136, 136); stroke-opacity: 0.8; stroke-width: 3.14731px; opacity: 1;"/></g><g class="points"/><g class="text"/></g><g class="trace scatter trace3fd3ac" style="stroke-miterlimit: 2; opacity: 1;"><g class="fills"/><g class="errorbars"/><g class="lines"><path class="js-line" d="M445.26,151.04L385.77,139.88" style="vector-effect: none; fill: none; stroke: rgb(136, 136, 136); stroke-opacity: 0.8; stroke-width: 3.43608px; opacity: 1;"/></g><g class="points"/><g class="text"/></g><g class="trace scatter tracea5d722" style="stroke-miterlimit: 2; opacity: 1;"><g class="fills"/><g class="errorbars"/><g class="lines"><path class="js-line" d="M69.04,263.75L125.39,199.33" style="vector-effect: none; fill: none; stroke: rgb(136, 136, 136); stroke-opacity: 0.8; stroke-width: 3.17775px; opacity: 1;"/></g><g class="points"/><g class="text"/></g><g class="trace scatter tracec5025b" style="stroke-miterlimit: 2; opacity: 1;"><g class="fills"/><g class="errorbars"/><g class="lines"><path class="js-line" d="M69.04,263.75L176.6,251.03" style="vector-effect: none; fill: none; stroke: rgb(136, 136, 136); stroke-opacity: 0.8; stroke-width: 3.2843px; opacity: 1;"/></g><g class="points"/><g class="text"/></g><g class="trace scatter traced1f87c" style="stroke-miterlimit: 2; opacity: 1;"><g class="fills"/><g class="errorbars"/><g class="lines"><path class="js-line" d="M385.77,139.88L276.3,36.15" style="vector-effect: none; fill: none; stroke: rgb(136, 136, 136); stroke-opacity: 0.8; stroke-width: 2.65697px; opacity: 1;"/></g><g class="points"/><g class="text"/></g><g class="trace scatter trace8f0a35" style="stroke-miterlimit: 2; opacity: 1;"><g class="fills"/><g class="errorbars"/><g class="lines"><path class="js-line" d="M385.77,139.88L301.28,144.68" style="vector-effect: none; fill: none; stroke: rgb(136, 136, 136); stroke-opacity: 0.8; stroke-width: 3.37509px; opacity: 1;"/></g><g class="points"/><g class="text"/></g><g class="trace scatter tracea165f1" style="stroke-miterlimit: 2; opacity: 1;"><g class="fills"/><g class="errorbars"/><g class="lines"><path class="js-line" d="M176.6,251.03L125.39,199.33" style="vector-effect: none; fill: none; stroke: rgb(136, 136, 136); stroke-opacity: 0.8; stroke-width: 3.2825px; opacity: 1;"/></g><g class="points"/><g class="text"/></g><g class="trace scatter trace47871b" style="stroke-miterlimit: 2; opacity: 1;"><g class="fills"/><g class="errorbars"/><g class="lines"><path class="js-line" d="M176.6,251.03L38.52,357.14" style="vector-effect: none; fill: none; stroke: rgb(136, 136, 136); stroke-opacity: 0.8; stroke-width: 2.53149px; opacity: 1;"/></g><g class="points"/><g class="text"/></g><g class="trace scatter trace9d189e" style="stroke-miterlimit: 2; opacity: 1;"><g class="fills"/><g class="errorbars"/><g class="lines"><path class="js-line" d="M176.6,251.03L311.33,313.52" style="vector-effect: none; fill: none; stroke: rgb(136, 136, 136); stroke-opacity: 0.8; stroke-width: 2.94055px; opacity: 1;"/></g><g class="points"/><g class="text"/></g><g class="trace scatter tracee935c1" style="stroke-miterlimit: 2; opacity: 1;"><g class="fills"/><g class="errorbars"/><g class="lines"><path class="js-line" d="M341.06,399.02L311.33,313.52" style="vector-effect: none; fill: none; stroke: rgb(136, 136, 136); stroke-opacity: 0.8; stroke-width: 3.02253px; opacity: 1;"/></g><g class="points"/><g class="text"/></g><g class="trace scatter tracea06c74" style="stroke-miterlimit: 2; opacity: 1;"><g class="fills"/><g class="errorbars"/><g class="lines"><path class="js-line" d="M341.06,399.02L533.23,561.85" style="vector-effect: none; fill: none; stroke: rgb(136, 136, 136); stroke-opacity: 0.8; stroke-width: 1.71426px; opacity: 1;"/></g><g class="points"/><g class="text"/></g><g class="trace scatter trace656650" style="stroke-miterlimit: 2; opacity: 1;"><g class="fills"/><g class="errorbars"/><g class="lines"><path class="js-line" d="M341.06,399.02L484.85,364.08" style="vector-effect: none; fill: none; stroke: rgb(136, 136, 136); stroke-opacity: 0.8; stroke-width: 3.05838px; opacity: 1;"/></g><g class="points"/><g class="text"/></g><g class="trace scatter traceadd84e" style="stroke-miterlimit: 2; opacity: 1;"><g class="fills"/><g class="errorbars"/><g class="lines"><path class="js-line" d="M341.06,399.02L38.52,357.14" style="vector-effect: none; fill: none; stroke: rgb(136, 136, 136); stroke-opacity: 0.8; stroke-width: 2.05952px; opacity: 1;"/></g><g class="points"/><g class="text"/></g><g class="trace scatter tracec9c64e" style="stroke-miterlimit: 2; opacity: 1;"><g class="fills"/><g class="errorbars"/><g class="lines"><path class="js-line" d="M311.33,313.52L383.81,248.83" style="vector-effect: none; fill: none; stroke: rgb(136, 136, 136); stroke-opacity: 0.8; stroke-width: 3.13941px; opacity: 1;"/></g><g class="points"/><g class="text"/></g><g class="trace scatter trace59174e" style="stroke-miterlimit: 2; opacity: 1;"><g class="fills"/><g class="errorbars"/><g class="lines"><path class="js-line" d="M484.85,364.08L533.23,561.85" style="vector-effect: none; fill: none; stroke: rgb(136, 136, 136); stroke-opacity: 0.8; stroke-width: 1.62004px; opacity: 1;"/></g><g class="points"/><g class="text"/></g><g class="trace scatter traceb1673f" style="stroke-miterlimit: 2; opacity: 1;"><g class="fills"/><g class="errorbars"/><g class="lines"><path class="js-line" d="M125.39,199.33L115.6,132.07" style="vector-effect: none; fill: none; stroke: rgb(136, 136, 136); stroke-opacity: 0.8; stroke-width: 3.20841px; opacity: 1;"/></g><g class="points"/><g class="text"/></g><g class="trace scatter trace26771f" style="stroke-miterlimit: 2; opacity: 1;"><g class="fills"/><g class="errorbars"/><g class="lines"><path class="js-line" d="M125.39,199.33L301.28,144.68" style="vector-effect: none; fill: none; stroke: rgb(136, 136, 136); stroke-opacity: 0.8; stroke-width: 2.79166px; opacity: 1;"/></g><g class="points"/><g class="text"/></g><g class="trace scatter trace4f4e38" style="stroke-miterlimit: 2; opacity: 1;"><g class="fills"/><g class="errorbars"/><g class="lines"><path class="js-line" d="M115.6,132.07L276.3,36.15" style="vector-effect: none; fill: none; stroke: rgb(136, 136, 136); stroke-opacity: 0.8; stroke-width: 2.54047px; opacity: 1;"/></g><g class="points"/><g class="text"/></g><g class="trace scatter trace7b9d5a" style="stroke-miterlimit: 2; opacity: 1;"><g class="fills"/><g class="errorbars"/><g class="lines"><path class="js-line" d="M115.6,132.07L301.28,144.68" style="vector-effect: none; fill: none; stroke: rgb(136, 136, 136); stroke-opacity: 0.8; stroke-width: 2.89517px; opacity: 1;"/></g><g class="points"/><g class="text"/></g><g class="trace scatter trace635fba" style="stroke-miterlimit: 2; opacity: 1;"><g class="fills"/><g class="errorbars"/><g class="lines"><path class="js-line" d="M533.23,561.85L38.52,357.14" style="vector-effect: none; fill: none; stroke: rgb(136, 136, 136); stroke-opacity: 0.8; stroke-width: 0.5px; opacity: 1;"/></g><g class="points"/><g class="text"/></g><g class="trace scatter trace4f2da9" style="stroke-miterlimit: 2; opacity: 1;"><g class="fills"/><g class="errorbars"/><g class="lines"><path class="js-line" d="M383.81,248.83L561.85,192.78" style="vector-effect: none; fill: none; stroke: rgb(136, 136, 136); stroke-opacity: 0.8; stroke-width: 2.7716px; opacity: 1;"/></g><g class="points"/><g class="text"/></g><g class="trace scatter trace3168e0" style="stroke-miterlimit: 2; opacity: 1;"><g class="fills"/><g class="errorbars"/><g class="lines"><path class="js-line" d="M383.81,248.83L176.6,251.03" style="vector-effect: none; fill: none; stroke: rgb(136, 136, 136); stroke-opacity: 0.8; stroke-width: 2.7724px; opacity: 1;"/></g><g class="points"/><g class="text"/></g><g class="trace scatter tracef4100e" style="stroke-miterlimit: 2; opacity: 1;"><g class="fills"/><g class="errorbars"/><g class="lines"><path class="js-line" d="M301.28,144.68L383.81,248.83" style="vector-effect: none; fill: none; stroke: rgb(136, 136, 136); stroke-opacity: 0.8; stroke-width: 2.72847px; opacity: 1;"/></g><g class="points"/><g class="text"/></g><g class="trace scatter trace25796f" style="stroke-miterlimit: 2; opacity: 1;"><g class="fills"/><g class="errorbars"/><g class="lines"><path class="js-line" d="M561.85,192.78L276.3,36.15" style="vector-effect: none; fill: none; stroke: rgb(136, 136, 136); stroke-opacity: 0.8; stroke-width: 1.41068px; opacity: 1;"/></g><g class="points"/><g class="text"/></g><g class="trace scatter tracea773d3" style="stroke-miterlimit: 2; opacity: 1;"><g class="fills"/><g class="errorbars"/><g class="lines"><path class="js-line" d="M561.85,192.78L484.85,364.08" style="vector-effect: none; fill: none; stroke: rgb(136, 136, 136); stroke-opacity: 0.8; stroke-width: 1.91365px; opacity: 1;"/></g><g class="points"/><g class="text"/></g><g class="trace scatter traceec730e" style="stroke-miterlimit: 2; opacity: 1;"><g class="fills"/><g class="errorbars"/><g class="lines"/><g class="points"><path class="point" transform="translate(396.2,269.47)" d="M5,0A5,5 0 1,1 0,-5A5,5 0 0,1 5,0Z" style="opacity: 1; stroke-width: 0px; fill: rgb(0, 0, 0); fill-opacity: 0;"/><path class="point" transform="translate(446.71,327.1)" d="M5,0A5,5 0 1,1 0,-5A5,5 0 0,1 5,0Z" style="opacity: 1; stroke-width: 0px; fill: rgb(0, 0, 0); fill-opacity: 0;"/><path class="point" transform="translate(396.02,291.58)" d="M5,0A5,5 0 1,1 0,-5A5,5 0 0,1 5,0Z" style="opacity: 1; stroke-width: 0px; fill: rgb(0, 0, 0); fill-opacity: 0;"/><path class="point" transform="translate(42.59,300.56)" d="M5,0A5,5 0 1,1 0,-5A5,5 0 0,1 5,0Z" style="opacity: 1; stroke-width: 0px; fill: rgb(0, 0, 0); fill-opacity: 0;"/><path class="point" transform="translate(43.78,337.23)" d="M5,0A5,5 0 1,1 0,-5A5,5 0 0,1 5,0Z" style="opacity: 1; stroke-width: 0px; fill: rgb(0, 0, 0); fill-opacity: 0;"/><path class="point" transform="translate(112.82,284.18)" d="M5,0A5,5 0 1,1 0,-5A5,5 0 0,1 5,0Z" style="opacity: 1; stroke-width: 0px; fill: rgb(0, 0, 0); fill-opacity: 0;"/><path class="point" transform="translate(52.59,273.78)" d="M5,0A5,5 0 1,1 0,-5A5,5 0 0,1 5,0Z" style="opacity: 1; stroke-width: 0px; fill: rgb(0, 0, 0); fill-opacity: 0;"/><path class="point" transform="translate(106.37,267.42)" d="M5,0A5,5 0 1,1 0,-5A5,5 0 0,1 5,0Z" style="opacity: 1; stroke-width: 0px; fill: rgb(0, 0, 0); fill-opacity: 0;"/><path class="point" transform="translate(174.93,335.33)" d="M5,0A5,5 0 1,1 0,-5A5,5 0 0,1 5,0Z" style="opacity: 1; stroke-width: 0px; fill: rgb(0, 0, 0); fill-opacity: 0;"/><path class="point" transform="translate(383.63,270.93)" d="M5,0A5,5 0 1,1 0,-5A5,5 0 0,1 5,0Z" style="opacity: 1; stroke-width: 0px; fill: rgb(0, 0, 0); fill-opacity: 0;"/><path class="point" transform="translate(434.15,328.56)" d="M5,0A5,5 0 1,1 0,-5A5,5 0 0,1 5,0Z" style="opacity: 1; stroke-width: 0px; fill: rgb(0, 0, 0); fill-opacity: 0;"/><path class="point" transform="translate(347.39,303.27)" d="M5,0A5,5 0 1,1 0,-5A5,5 0 0,1 5,0Z" style="opacity: 1; stroke-width: 0px; fill: rgb(0, 0, 0); fill-opacity: 0;"/><path class="point" transform="translate(373.24,152.02)" d="M5,0A5,5 0 1,1 0,-5A5,5 0 0,1 5,0Z" style="opacity: 1; stroke-width: 0px; fill: rgb(0, 0, 0); fill-opacity: 0;"/><path class="point" transform="translate(372.26,206.5)" d="M5,0A5,5 0 1,1 0,-5A5,5 0 0,1 5,0Z" style="opacity: 1; stroke-width: 0px; fill: rgb(0, 0, 0); fill-opacity: 0;"/><path class="point" transform="translate(402.98,157.6)" d="M5,0A5,5 0 1,1 0,-5A5,5 0 0,1 5,0Z" style="opacity: 1; stroke-width: 0px; fill: rgb(0, 0, 0); fill-opacity: 0;"/><path class="point" transform="translate(330.99,154.42)" d="M5,0A5,5 0 1,1 0,-5A5,5 0 0,1 5,0Z" style="opacity: 1; stroke-width: 0px; fill: rgb(0, 0, 0); fill-opacity: 0;"/><path class="point" transform="translate(288.79,90.42)" d="M5,0A5,5 0 1,1 0,-5A5,5 0 0,1 5,0Z" style="opacity: 1; stroke-width: 0px; fill: rgb(0, 0, 0); fill-opacity: 0;"/><path class="point" transform="translate(360.78,93.59)" d="M5,0A5,5 0 1,1 0,-5A5,5 0 0,1 5,0Z" style="opacity: 1; stroke-width: 0px; fill: rgb(0, 0, 0); fill-opacity: 0;"/><path class="point" transform="translate(414.54,199.93)" d="M5,0A5,5 0 1,1 0,-5A5,5 0 0,1 5,0Z" style="opacity: 1; stroke-width: 0px; fill: rgb(0, 0, 0); fill-opacity: 0;"/><path class="point" transform="translate(503.56,171.91)" d="M5,0A5,5 0 1,1 0,-5A5,5 0 0,1 5,0Z" style="opacity: 1; stroke-width: 0px; fill: rgb(0, 0, 0); fill-opacity: 0;"/><path class="point" transform="translate(415.52,145.46)" d="M5,0A5,5 0 1,1 0,-5A5,5 0 0,1 5,0Z" style="opacity: 1; stroke-width: 0px; fill: rgb(0, 0, 0); fill-opacity: 0;"/><path class="point" transform="translate(97.21,231.54)" d="M5,0A5,5 0 1,1 0,-5A5,5 0 0,1 5,0Z" style="opacity: 1; stroke-width: 0px; fill: rgb(0, 0, 0); fill-opacity: 0;"/><path class="point" transform="translate(122.82,257.39)" d="M5,0A5,5 0 1,1 0,-5A5,5 0 0,1 5,0Z" style="opacity: 1; stroke-width: 0px; fill: rgb(0, 0, 0); fill-opacity: 0;"/><path class="point" transform="translate(331.04,88.02)" d="M5,0A5,5 0 1,1 0,-5A5,5 0 0,1 5,0Z" style="opacity: 1; stroke-width: 0px; fill: rgb(0, 0, 0); fill-opacity: 0;"/><path class="point" transform="translate(343.53,142.28)" d="M5,0A5,5 0 1,1 0,-5A5,5 0 0,1 5,0Z" style="opacity: 1; stroke-width: 0px; fill: rgb(0, 0, 0); fill-opacity: 0;"/><path class="point" transform="translate(150.99,225.18)" d="M5,0A5,5 0 1,1 0,-5A5,5 0 0,1 5,0Z" style="opacity: 1; stroke-width: 0px; fill: rgb(0, 0, 0); fill-opacity: 0;"/><path class="point" transform="translate(107.56,304.09)" d="M5,0A5,5 0 1,1 0,-5A5,5 0 0,1 5,0Z" style="opacity: 1; stroke-width: 0px; fill: rgb(0, 0, 0); fill-opacity: 0;"/><path class="point" transform="translate(243.97,282.27)" d="M5,0A5,5 0 1,1 0,-5A5,5 0 0,1 5,0Z" style="opacity: 1; stroke-width: 0px; fill: rgb(0, 0, 0); fill-opacity: 0;"/><path class="point" transform="translate(326.2,356.27)" d="M5,0A5,5 0 1,1 0,-5A5,5 0 0,1 5,0Z" style="opacity: 1; stroke-width: 0px; fill: rgb(0, 0, 0); fill-opacity: 0;"/><path class="point" transform="translate(437.14,480.44)" d="M5,0A5,5 0 1,1 0,-5A5,5 0 0,1 5,0Z" style="opacity: 1; stroke-width: 0px; fill: rgb(0, 0, 0); fill-opacity: 0;"/><path class="point" transform="translate(412.95,381.55)" d="M5,0A5,5 0 1,1 0,-5A5,5 0 0,1 5,0Z" style="opacity: 1; stroke-width: 0px; fill: rgb(0, 0, 0); fill-opacity: 0;"/><path class="point" transform="translate(189.79,378.08)" d="M5,0A5,5 0 1,1 0,-5A5,5 0 0,1 5,0Z" style="opacity: 1; stroke-width: 0px; fill: rgb(0, 0, 0); fill-opacity: 0;"/><path class="point" transform="translate(347.57,281.17)" d="M5,0A5,5 0 1,1 0,-5A5,5 0 0,1 5,0Z" style="opacity: 1; stroke-width: 0px; fill: rgb(0, 0, 0); fill-opacity: 0;"/><path class="point" transform="translate(509.04,462.97)" d="M5,0A5,5 0 1,1 0,-5A5,5 0 0,1 5,0Z" style="opacity: 1; stroke-width: 0px; fill: rgb(0, 0, 0); fill-opacity: 0;"/><path class="point" transform="translate(120.5,165.7)" d="M5,0A5,5 0 1,1 0,-5A5,5 0 0,1 5,0Z" style="opacity: 1; stroke-width: 0px; fill: rgb(0, 0, 0); fill-opacity: 0;"/><path class="point" transform="translate(213.34,172)" d="M5,0A5,5 0 1,1 0,-5A5,5 0 0,1 5,0Z" style="opacity: 1; stroke-width: 0px; fill: rgb(0, 0, 0); fill-opacity: 0;"/><path class="point" transform="translate(195.95,84.11)" d="M5,0A5,5 0 1,1 0,-5A5,5 0 0,1 5,0Z" style="opacity: 1; stroke-width: 0px; fill: rgb(0, 0, 0); fill-opacity: 0;"/><path class="point" transform="translate(208.44,138.38)" d="M5,0A5,5 0 1,1 0,-5A5,5 0 0,1 5,0Z" style="opacity: 1; stroke-width: 0px; fill: rgb(0, 0, 0); fill-opacity: 0;"/><path class="point" transform="translate(285.88,459.5)" d="M5,0A5,5 0 1,1 0,-5A5,5 0 0,1 5,0Z" style="opacity: 1; stroke-width: 0px; fill: rgb(0, 0, 0); fill-opacity: 0;"/><path class="point" transform="translate(472.83,220.81)" d="M5,0A5,5 0 1,1 0,-5A5,5 0 0,1 5,0Z" style="opacity: 1; stroke-width: 0px; fill: rgb(0, 0, 0); fill-opacity: 0;"/><path class="point" transform="translate(280.2,249.93)" d="M5,0A5,5 0 1,1 0,-5A5,5 0 0,1 5,0Z" style="opacity: 1; stroke-width: 0px; fill: rgb(0, 0, 0); fill-opacity: 0;"/><path class="point" transform="translate(342.55,196.75)" d="M5,0A5,5 0 1,1 0,-5A5,5 0 0,1 5,0Z" style="opacity: 1; stroke-width: 0px; fill: rgb(0, 0, 0); fill-opacity: 0;"/><path class="point" transform="translate(419.08,114.47)" d="M5,0A5,5 0 1,1 0,-5A5,5 0 0,1 5,0Z" style="opacity: 1; stroke-width: 0px; fill: rgb(0, 0, 0); fill-opacity: 0;"/><path class="point" transform="translate(523.35,278.43)" d="M5,0A5,5 0 1,1 0,-5A5,5 0 0,1 5,0Z" style="opacity: 1; stroke-width: 0px; fill: rgb(0, 0, 0); fill-opacity: 0;"/></g><g class="text"/></g><g class="trace scatter traced88b77" style="stroke-miterlimit: 2; opacity: 1;"><g class="fills"/><g class="errorbars"/><g class="lines"/><g class="points"><path class="point" transform="translate(408.58,290.12)" d="M5,0A5,5 0 1,1 0,-5A5,5 0 0,1 5,0Z" style="opacity: 1; stroke-width: 0px; fill: rgb(220, 220, 220); fill-opacity: 1;"/><path class="point" transform="translate(49.04,317.33)" d="M5,0A5,5 0 1,1 0,-5A5,5 0 0,1 5,0Z" style="opacity: 1; stroke-width: 0px; fill: rgb(220, 220, 220); fill-opacity: 1;"/><path class="point" transform="translate(36.15,283.8)" d="M5,0A5,5 0 1,1 0,-5A5,5 0 0,1 5,0Z" style="opacity: 1; stroke-width: 0px; fill: rgb(220, 220, 220); fill-opacity: 1;"/><path class="point" transform="translate(38.52,357.14)" d="M5,0A5,5 0 1,1 0,-5A5,5 0 0,1 5,0Z" style="opacity: 1; stroke-width: 0px; fill: rgb(245, 160, 105); fill-opacity: 1;"/><path class="point" transform="translate(383.46,293.03)" d="M5,0A5,5 0 1,1 0,-5A5,5 0 0,1 5,0Z" style="opacity: 1; stroke-width: 0px; fill: rgb(245, 195, 157); fill-opacity: 1;"/><path class="point" transform="translate(360.7,164.17)" d="M5,0A5,5 0 1,1 0,-5A5,5 0 0,1 5,0Z" style="opacity: 1; stroke-width: 0px; fill: rgb(245, 195, 157); fill-opacity: 1;"/><path class="point" transform="translate(276.3,36.15)" d="M5,0A5,5 0 1,1 0,-5A5,5 0 0,1 5,0Z" style="opacity: 1; stroke-width: 0px; fill: rgb(245, 160, 105); fill-opacity: 1;"/><path class="point" transform="translate(445.26,151.04)" d="M5,0A5,5 0 1,1 0,-5A5,5 0 0,1 5,0Z" style="opacity: 1; stroke-width: 0px; fill: rgb(245, 160, 105); fill-opacity: 1;"/><path class="point" transform="translate(69.04,263.75)" d="M5,0A5,5 0 1,1 0,-5A5,5 0 0,1 5,0Z" style="opacity: 1; stroke-width: 0px; fill: rgb(220, 220, 220); fill-opacity: 1;"/><path class="point" transform="translate(385.77,139.88)" d="M5,0A5,5 0 1,1 0,-5A5,5 0 0,1 5,0Z" style="opacity: 1; stroke-width: 0px; fill: rgb(245, 195, 157); fill-opacity: 1;"/><path class="point" transform="translate(176.6,251.03)" d="M5,0A5,5 0 1,1 0,-5A5,5 0 0,1 5,0Z" style="opacity: 1; stroke-width: 0px; fill: rgb(200, 60, 54); fill-opacity: 1;"/><path class="point" transform="translate(341.06,399.02)" d="M5,0A5,5 0 1,1 0,-5A5,5 0 0,1 5,0Z" style="opacity: 1; stroke-width: 0px; fill: rgb(245, 195, 157); fill-opacity: 1;"/><path class="point" transform="translate(311.33,313.52)" d="M5,0A5,5 0 1,1 0,-5A5,5 0 0,1 5,0Z" style="opacity: 1; stroke-width: 0px; fill: rgb(245, 160, 105); fill-opacity: 1;"/><path class="point" transform="translate(484.85,364.08)" d="M5,0A5,5 0 1,1 0,-5A5,5 0 0,1 5,0Z" style="opacity: 1; stroke-width: 0px; fill: rgb(245, 160, 105); fill-opacity: 1;"/><path class="point" transform="translate(125.39,199.33)" d="M5,0A5,5 0 1,1 0,-5A5,5 0 0,1 5,0Z" style="opacity: 1; stroke-width: 0px; fill: rgb(245, 195, 157); fill-opacity: 1;"/><path class="point" transform="translate(115.6,132.07)" d="M5,0A5,5 0 1,1 0,-5A5,5 0 0,1 5,0Z" style="opacity: 1; stroke-width: 0px; fill: rgb(220, 220, 220); fill-opacity: 1;"/><path class="point" transform="translate(533.23,561.85)" d="M5,0A5,5 0 1,1 0,-5A5,5 0 0,1 5,0Z" style="opacity: 1; stroke-width: 0px; fill: rgb(220, 220, 220); fill-opacity: 1;"/><path class="point" transform="translate(383.81,248.83)" d="M5,0A5,5 0 1,1 0,-5A5,5 0 0,1 5,0Z" style="opacity: 1; stroke-width: 0px; fill: rgb(178, 10, 28); fill-opacity: 1;"/><path class="point" transform="translate(301.28,144.68)" d="M5,0A5,5 0 1,1 0,-5A5,5 0 0,1 5,0Z" style="opacity: 1; stroke-width: 0px; fill: rgb(223, 110, 79); fill-opacity: 1;"/><path class="point" transform="translate(561.85,192.78)" d="M5,0A5,5 0 1,1 0,-5A5,5 0 0,1 5,0Z" style="opacity: 1; stroke-width: 0px; fill: rgb(245, 195, 157); fill-opacity: 1;"/></g><g class="text"/></g></g></g></g><path class="xlines-above crisp" d="M0,0" style="fill: none;"/><path class="ylines-above crisp" d="M0,0" style="fill: none;"/><g class="overlines-above"/><g class="xaxislayer-above"/><g class="yaxislayer-above"/><g class="overaxes-above"/></g></g><g class="polarlayer"/><g class="smithlayer"/><g class="ternarylayer"/><g class="geolayer"/><g class="funnelarealayer"/><g class="pielayer"/><g class="iciclelayer"/><g class="treemaplayer"/><g class="sunburstlayer"/><g class="glimages"/><defs id="topdefs-667f44"><g class="clips"/></defs><g class="layer-above"><g class="imagelayer"/><g class="shapelayer"/></g><g class="infolayer"><g class="g-gtitle"/><g class="g-xtitle"/><g class="g-ytitle"/></g></svg>