<svg class="main-svg" xmlns="http://www.w3.org/2000/svg" xmlns:xlink="http://www.w3.org/1999/xlink" width="600" height="600" style="" viewBox="0 0 600 600"><rect x="0" y="0" width="600" height="600" style="fill: rgb(255, 255, 255); fill-opacity: 1;"/><defs id="defs-d43892"><g class="clips"><clipPath id="clipd43892xyplot" class="plotclip"><rect width="598" height="598"/></clipPath><clipPath class="axesclip" id="clipd43892x"><rect x="1" y="0" width="598" height="600"/></clipPath><clipPath class="axesclip" id="clipd43892y"><rect x="0" y="1" width="600" height="598"/></clipPath><clipPath class="axesclip" id="clipd43892xy"><rect x="1" y="1" width="598" height="598"/></clipPath></g><g class="gradients"/><g class="patterns"/></defs><g class="bglayer"/><g class="layer-below"><g class="imagelayer"/><g class="shapelayer"/></g><g class="cartesianlayer"><g class="subplot xy"><g class="layer-subplot"><g class="shapelayer"/><g class="imagelayer"/></g><g class="minor-gridlayer"><g class="x"/><g class="y"/></g><g class="gridlayer"><g class="x"/><g class="y"/></g><g class="zerolinelayer"/><g class="layer-between"><g class="shapelayer"/><g class="imagelayer"/></g><path class="xlines-below"/><path class="ylines-below"/><g class="overlines-below"/><g class="xaxislayer-below"/><g class="yaxislayer-below"/><g class="overaxes-below"/><g class="overplot"><g class="xy" transform="translate(1,1)" clip-path="url(#clipd43892xyplot)"><g class="scatterlayer mlayer"><g class="trace scatter traceb6821c" style="stroke-miterlimit: 2; opacity: 1;"><g class="fills"/><g class="errorbars"/><g class="lines"><path class="js-line" d="M408.58,290.12L385.77,139.88" style="vector-effect: none; fill: none; stroke: rgb(136, 136, 136); stroke-opacity: 0.8; stroke-width: 2.44521px; opacity: 1;"/></g><g class="points"/><g class="text"/></g><g class="trace scatter tracef1317c" style="stroke-miterlimit: 2; opacity: 1;"><g class="fills"/><g class="errorbars"/><g class="lines"><path class="js-line" d="M408.58,290.12L533.23,561.85" style="vector-effect: none; fill: none; stroke: rgb(136, 136, 136); stroke-opacity: 0.8; stroke-width: 1.06002px; opacity: 1;"/></g><g class="points"/><g class="text"/></g><g class="trace scatter trace9189ec" style="stroke-miterlimit: 2; opacity: 1;"><g class="fills"/><g class="errorbars"/><g class="lines"><path class="js-line" d="M408.58,290.12L36.15,283.8" style="vector-effect: none; fill: none; stroke: rgb(136, 136, 136); stroke-opacity: 0.8; stroke-width: 1.91058px; opacity: 1;"/></g><g class="points"/><g class="text"/></g><g class="trace scatter trace5f5ad9" style="stroke-miterlimit: 2; opacity: 1;"><g class="fills"/><g class="errorbars"/><g class="lines"><path class="js-line" d="M49.04,317.33L69.04,263.75" style="vector-effect: none; fill: none; stroke: rgb(136, 136, 136); stroke-opacity: 0.8; stroke-width: 3.34623px; opacity: 1;"/></g><g class="points"/><g class="text"/></g><g class="trace scatter trace814358" style="stroke-miterlimit: 2; opacity: 1;"><g class="fills"/><g class="errorbars"/><g class="lines"><path class="js-line" d="M49.04,317.33L38.52,357.14" style="vector-effect: none; fill: none; stroke: rgb(136, 136, 136); stroke-opacity: 0.8; stroke-width: 3.42036px; opacity: 1;"/></g><g class="points"/><g class="text"/></g><g class="trace scatter trace2eda7d" style="stroke-miterlimit: 2; opacity: 1;"><g class="fills"/><g class="errorbars"/><g class="lines"><path class="js-line" d="M49.04,317.33L311.33,313.52" style="vector-effect: none; fill: none; stroke: rgb(136, 136, 136); stroke-opacity: 0.8; stroke-width: 2.58798px; opacity: 1;"/></g><g class="points"/><g class="text"/></g><g class="trace scatter traced884c6" style="stroke-miterlimit: 2; opacity: 1;"><g class="fills"/><g class="errorbars"/><g class="lines"><path class="js-line" d="M36.15,283.8L115.6,132.07" style="vector-effect: none; fill: none; stroke: rgb(136, 136, 136); stroke-opacity: 0.8; stroke-width: 2.36744px; opacity: 1;"/></g><g class="points"/><g class="text"/></g><g class="trace scatter trace227885" style="stroke-miterlimit: 2; opacity: 1;"><g class="fills"/><g class="errorbars"/><g class="lines"><path class="js-line" d="M36.15,283.8L38.52,357.14" style="vector-effect: none; fill: none; stroke: rgb(136, 136, 136); stroke-opacity: 0.8; stroke-width: 3.22px; opacity: 1;"/></g><g class="points"/><g class="text"/></g><g class="trace scatter trace6045ad" style="stroke-miterlimit: 2; opacity: 1;"><g class="fills"/><g class="errorbars"/><g class="lines"><path class="js-line" d="M36.15,283.8L383.46,293.03" style="vector-effect: none; fill: none; stroke: rgb(136, 136, 136); stroke-opacity: 0.8; stroke-width: 2.06344px; opacity: 1;"/></g><g class="points"/><g class="text"/></g><g class="trace scatter traceb41c54" style="stroke-miterlimit: 2; opacity: 1;"><g class="fills"/><g class="errorbars"/><g class="lines"><path class="js-line" d="M38.52,357.14L484.85,364.08" style="vector-effect: none; fill: none; stroke: rgb(136, 136, 136); stroke-opacity: 0.8; stroke-width: 1.47961px; opacity: 1;"/></g><g class="points"/><g class="text"/></g><g class="trace scatter tracef0317e" style="stroke-miterlimit: 2; opacity: 1;"><g class="fills"/><g class="errorbars"/><g class="lines"><path class="js-line" d="M383.46,293.03L383.81,248.83" style="vector-effect: none; fill: none; stroke: rgb(136, 136, 136); stroke-opacity: 0.8; stroke-width: 3.40185px; opacity: 1;"/></g><g class="points"/><g class="text"/></g><g class="trace scatter trace1fa306" style="stroke-miterlimit: 2; opacity: 1;"><g class="fills"/><g class="errorbars"/><g class="lines"><path class="js-line" d="M383.46,293.03L341.06,399.02" style="vector-effect: none; fill: none; stroke: rgb(136, 136, 136); stroke-opacity: 0.8; stroke-width: 2.90948px; opacity: 1;"/></g><g class="points"/><g class="text"/></g><g class="trace scatter traced2a750" style="stroke-miterlimit: 2; opacity: 1;"><g class="fills"/><g class="errorbars"/><g class="lines"><path class="js-line" d="M383.46,293.03L408.58,290.12" style="vector-effect: none; fill: none; stroke: rgb(136, 136, 136); stroke-opacity: 0.8; stroke-width: 3.5px; opacity: 1;"/></g><g class="points"/><g class="text"/></g><g class="trace scatter trace4e2cb4" style="stroke-miterlimit: 2; opacity: 1;"><g class="fills"/><g class="errorbars"/><g class="lines"><path class="js-line" d="M360.7,164.17L276.3,36.15" style="vector-effect: none; fill: none; stroke: rgb(136, 136, 136); stroke-opacity: 0.8; stroke-width: 2.61888px; opacity: 1;"/></g><g class="points"/><g class="text"/></g><g class="trace scatter trace2d3900" style="stroke-miterlimit: 2; opacity: 1;"><g class="fills"/><g class="errorbars"/><g class="lines"><path class="js-line" d="M360.7,164.17L383.46,293.03" style="vector-effect: none; fill: none; stroke: rgb(136, 136, 136); stroke-opacity: 0.8; stroke-width: 2.68673px; opacity: 1;"/></g><g class="points"/><g class="text"/></g><g class="trace scatter trace9281a3" style="stroke-miterlimit: 2; opacity: 1;"><g class="fills"/><g class="errorbars"/><g class="lines"><path class="js-line" d="M360.7,164.17L445.26,151.04" style="vector-effect: none; fill: none; stroke: rgb(136, 136, 136); stroke-opacity: 0.8; stroke-width: 3.39074px; opacity: 1;"/></g><g class="points"/><g class="text"/></g><g class="trace scatter trace7558ed" style="stroke-miterlimit: 2; opacity: 1;"><g class="fills"/><g class="errorbars"/><g class="lines"><path class="js-line" d="M360.7,164.17L115.6,132.07" style="vector-effect: none; fill: none; stroke: rgb(136, 136, 136); stroke-opacity: 0.8; stroke-width: 2.6462px; opacity: 1;"/></g><g class="points"/><g class="text"/></g><g class="trace scatter trace743e0c" style="stroke-miterlimit: 2; opacity: 1;"><g class="fills"/><g class="errorbars"/><g class="lines"><path class="js-line" d="M276.3,36.15L301.28,144.68" style="vector-effect: none; fill: none; stroke: rgb(136, 136, 136); stroke-opacity: 0.8; stroke-width: 2.89936px; opacity: 1;"/></g><g class="points"/><g class="text"/></g><g class="trace scatter traceae5988" style="stroke-miterlimit: 2; opacity: 1;"><g class="fills"/><g class="errorbars"/><g class="lines"><path class="js-line" d="M445.26,151.04L276.3,36.15" style="vector-effect: none; fill: none; stroke: rgb(136, 136, 136); stroke-opacity: 0.8; stroke-width: 2.50724px; opacity: 1;"/></g><g class="points"/><g class="text"/></g><g class="trace scatter trace32b9ee" style="stroke-miterlimit: 2; opacity: 1;"><g class="fills"/><g class="errorbars"/><g class="lines"><path class="js-line" d="M445.26,151.04L408.58,290.12" style="vector-effect: none; fill: none; stroke: rgb(136, 136, 136); stroke-opacity: 0.8; stroke-width: 2.56354px; opacity: 1;"/></g><g class="points"/><g class="text"/></g><g class="trace scatter trace033bb8" style="stroke-miterlimit: 2; opacity: 1;"><g class="fills"/><g class="errorbars"/><g class="lines"><path class="js-line" d="M445.26,151.04L561.85,192.78" style="vector-effect: none; fill: none; stroke: rgb(136, 136, 136); stroke-opacity: 0.8; stroke-width: 3.21298px; opacity: 1;"/></g><g class="points"/><g class="text"/></g><g class="trace scatter trace233008" style="stroke-miterlimit: 2; opacity: 1;"><g class="fills"/><g class="errorbars"/><g class="lines"><path class="js-line" d="M445.26,151.04L301.28,144.68" style="vector-effect: none; fill: none; stroke: rgb(136, 136, 136); stroke-opacity: 0.8; stroke-width: 3.19864px; opacity: 1;"/></g><g class="points"/><g class="text"/></g><g class="trace scatter traceafa0f6" style="stroke-miterlimit: 2; opacity: 1;"><g class="fills"/><g class="errorbars"/><g class="lines"><path class="js-line" d="M69.04,263.75L115.6,132.07" style="vector-effect: none; fill: none; stroke: rgb(136, 136, 136); stroke-opacity: 0.8; stroke-width: 2.63656px; opacity: 1;"/></g><g class="points"/><g class="text"/></g><g class="trace scatter trace6b8b4b" style="stroke-miterlimit: 2; opacity: 1;"><g class="fills"/><g class="errorbars"/><g class="lines"><path class="js-line" d="M69.04,263.75L383.81,248.83" style="vector-effect: none; fill: none; stroke: rgb(136, 136, 136); stroke-opacity: 0.8; stroke-width: 2.26011px; opacity: 1;"/></g><g class="points"/><g class="text"/></g><g class="trace scatter tracefb61d2" style="stroke-miterlimit: 2; opacity: 1;"><g class="fills"/><g class="errorbars"/><g class="lines"><path class="js-line" d="M385.77,139.88L276.3,36.15" style="vector-effect: none; fill: none; stroke: rgb(136, 136, 136); stroke-opacity: 0.8; stroke-width: 2.80258px; opacity: 1;"/></g><g class="points"/><g class="text"/></g><g class="trace scatter tracea4fbc5" style="stroke-miterlimit: 2; opacity: 1;"><g class="fills"/><g class="errorbars"/><g class="lines"><path class="js-line" d="M385.77,139.88L383.81,248.83" style="vector-effect: none; fill: none; stroke: rgb(136, 136, 136); stroke-opacity: 0.8; stroke-width: 2.90314px; opacity: 1;"/></g><g class="points"/><g class="text"/></g><g class="trace scatter trace242655" style="stroke-miterlimit: 2; opacity: 1;"><g class="fills"/><g class="errorbars"/><g class="lines"><path class="js-line" d="M385.77,139.88L445.26,151.04" style="vector-effect: none; fill: none; stroke: rgb(136, 136, 136); stroke-opacity: 0.8; stroke-width: 3.44844px; opacity: 1;"/></g><g class="points"/><g class="text"/></g><g class="trace scatter trace645cb3" style="stroke-miterlimit: 2; opacity: 1;"><g class="fills"/><g class="errorbars"/><g class="lines"><path class="js-line" d="M385.77,139.88L301.28,144.68" style="vector-effect: none; fill: none; stroke: rgb(136, 136, 136); stroke-opacity: 0.8; stroke-width: 3.39906px; opacity: 1;"/></g><g class="points"/><g class="text"/></g><g class="trace scatter trace88834d" style="stroke-miterlimit: 2; opacity: 1;"><g class="fills"/><g class="errorbars"/><g class="lines"><path class="js-line" d="M176.6,251.03L115.6,132.07" style="vector-effect: none; fill: none; stroke: rgb(136, 136, 136); stroke-opacity: 0.8; stroke-width: 2.75424px; opacity: 1;"/></g><g class="points"/><g class="text"/></g><g class="trace scatter trace617356" style="stroke-miterlimit: 2; opacity: 1;"><g class="fills"/><g class="errorbars"/><g class="lines"><path class="js-line" d="M176.6,251.03L341.06,399.02" style="vector-effect: none; fill: none; stroke: rgb(136, 136, 136); stroke-opacity: 0.8; stroke-width: 2.20167px; opacity: 1;"/></g><g class="points"/><g class="text"/></g><g class="trace scatter tracec61b66" style="stroke-miterlimit: 2; opacity: 1;"><g class="fills"/><g class="errorbars"/><g class="lines"><path class="js-line" d="M176.6,251.03L383.81,248.83" style="vector-effect: none; fill: none; stroke: rgb(136, 136, 136); stroke-opacity: 0.8; stroke-width: 2.90051px; opacity: 1;"/></g><g class="points"/><g class="text"/></g><g class="trace scatter trace4b7ef8" style="stroke-miterlimit: 2; opacity: 1;"><g class="fills"/><g class="errorbars"/><g class="lines"><path class="js-line" d="M176.6,251.03L69.04,263.75" style="vector-effect: none; fill: none; stroke: rgb(136, 136, 136); stroke-opacity: 0.8; stroke-width: 3.32521px; opacity: 1;"/></g><g class="points"/><g class="text"/></g><g class="trace scatter tracea3b2cf" style="stroke-miterlimit: 2; opacity: 1;"><g class="fills"/><g class="errorbars"/><g class="lines"><path class="js-line" d="M341.06,399.02L311.33,313.52" style="vector-effect: none; fill: none; stroke: rgb(136, 136, 136); stroke-opacity: 0.8; stroke-width: 3.10988px; opacity: 1;"/></g><g class="points"/><g class="text"/></g><g class="trace scatter trace430a24" style="stroke-miterlimit: 2; opacity: 1;"><g class="fills"/><g class="errorbars"/><g class="lines"><path class="js-line" d="M341.06,399.02L533.23,561.85" style="vector-effect: none; fill: none; stroke: rgb(136, 136, 136); stroke-opacity: 0.8; stroke-width: 1.96395px; opacity: 1;"/></g><g class="points"/><g class="text"/></g><g class="trace scatter trace6fe5af" style="stroke-miterlimit: 2; opacity: 1;"><g class="fills"/><g class="errorbars"/><g class="lines"><path class="js-line" d="M341.06,399.02L484.85,364.08" style="vector-effect: none; fill: none; stroke: rgb(136, 136, 136); stroke-opacity: 0.8; stroke-width: 3.13959px; opacity: 1;"/></g><g class="points"/><g class="text"/></g><g class="trace scatter trace9e513d" style="stroke-miterlimit: 2; opacity: 1;"><g class="fills"/><g class="errorbars"/><g class="lines"><path class="js-line" d="M341.06,399.02L38.52,357.14" style="vector-effect: none; fill: none; stroke: rgb(136, 136, 136); stroke-opacity: 0.8; stroke-width: 2.28026px; opacity: 1;"/></g><g class="points"/><g class="text"/></g><g class="trace scatter trace019b30" style="stroke-miterlimit: 2; opacity: 1;"><g class="fills"/><g class="errorbars"/><g class="lines"><path class="js-line" d="M311.33,313.52L301.28,144.68" style="vector-effect: none; fill: none; stroke: rgb(136, 136, 136); stroke-opacity: 0.8; stroke-width: 2.23203px; opacity: 1;"/></g><g class="points"/><g class="text"/></g><g class="trace scatter trace811867" style="stroke-miterlimit: 2; opacity: 1;"><g class="fills"/><g class="errorbars"/><g class="lines"><path class="js-line" d="M311.33,313.52L408.58,290.12" style="vector-effect: none; fill: none; stroke: rgb(136, 136, 136); stroke-opacity: 0.8; stroke-width: 3.33595px; opacity: 1;"/></g><g class="points"/><g class="text"/></g><g class="trace scatter tracef2a027" style="stroke-miterlimit: 2; opacity: 1;"><g class="fills"/><g class="errorbars"/><g class="lines"><path class="js-line" d="M484.85,364.08L445.26,151.04" style="vector-effect: none; fill: none; stroke: rgb(136, 136, 136); stroke-opacity: 0.8; stroke-width: 1.70904px; opacity: 1;"/></g><g class="points"/><g class="text"/></g><g class="trace scatter tracee00712" style="stroke-miterlimit: 2; opacity: 1;"><g class="fills"/><g class="errorbars"/><g class="lines"><path class="js-line" d="M484.85,364.08L533.23,561.85" style="vector-effect: none; fill: none; stroke: rgb(136, 136, 136); stroke-opacity: 0.8; stroke-width: 1.87533px; opacity: 1;"/></g><g class="points"/><g class="text"/></g><g class="trace scatter trace33d6e4" style="stroke-miterlimit: 2; opacity: 1;"><g class="fills"/><g class="errorbars"/><g class="lines"><path class="js-line" d="M125.39,199.33L115.6,132.07" style="vector-effect: none; fill: none; stroke: rgb(136, 136, 136); stroke-opacity: 0.8; stroke-width: 3.26316px; opacity: 1;"/></g><g class="points"/><g class="text"/></g><g class="trace scatter traced2f969" style="stroke-miterlimit: 2; opacity: 1;"><g class="fills"/><g class="errorbars"/><g class="lines"><path class="js-line" d="M125.39,199.33L38.52,357.14" style="vector-effect: none; fill: none; stroke: rgb(136, 136, 136); stroke-opacity: 0.8; stroke-width: 2.28617px; opacity: 1;"/></g><g class="points"/><g class="text"/></g><g class="trace scatter tracebec453" style="stroke-miterlimit: 2; opacity: 1;"><g class="fills"/><g class="errorbars"/><g class="lines"><path class="js-line" d="M125.39,199.33L561.85,192.78" style="vector-effect: none; fill: none; stroke: rgb(136, 136, 136); stroke-opacity: 0.8; stroke-width: 1.53447px; opacity: 1;"/></g><g class="points"/><g class="text"/></g><g class="trace scatter traced4bcde" style="stroke-miterlimit: 2; opacity: 1;"><g class="fills"/><g class="errorbars"/><g class="lines"><path class="js-line" d="M115.6,132.07L276.3,36.15" style="vector-effect: none; fill: none; stroke: rgb(136, 136, 136); stroke-opacity: 0.8; stroke-width: 2.70285px; opacity: 1;"/></g><g class="points"/><g class="text"/></g><g class="trace scatter trace538e05" style="stroke-miterlimit: 2; opacity: 1;"><g class="fills"/><g class="errorbars"/><g class="lines"><path class="js-line" d="M115.6,132.07L301.28,144.68" style="vector-effect: none; fill: none; stroke: rgb(136, 136, 136); stroke-opacity: 0.8; stroke-width: 3.00375px; opacity: 1;"/></g><g class="points"/><g class="text"/></g><g class="trace scatter tracef57712" style="stroke-miterlimit: 2; opacity: 1;"><g class="fills"/><g class="errorbars"/><g class="lines"><path class="js-line" d="M533.23,561.85L38.52,357.14" style="vector-effect: none; fill: none; stroke: rgb(136, 136, 136); stroke-opacity: 0.8; stroke-width: 0.68934px; opacity: 1;"/></g><g class="points"/><g class="text"/></g><g class="trace scatter trace06d6c1" style="stroke-miterlimit: 2; opacity: 1;"><g class="fills"/><g class="errorbars"/><g class="lines"><path class="js-line" d="M383.81,248.83L561.85,192.78" style="vector-effect: none; fill: none; stroke: rgb(136, 136, 136); stroke-opacity: 0.8; stroke-width: 2.89983px; opacity: 1;"/></g><g class="points"/><g class="text"/></g><g class="trace scatter trace125862" style="stroke-miterlimit: 2; opacity: 1;"><g class="fills"/><g class="errorbars"/><g class="lines"><path class="js-line" d="M561.85,192.78L276.3,36.15" style="vector-effect: none; fill: none; stroke: rgb(136, 136, 136); stroke-opacity: 0.8; stroke-width: 1.67427px; opacity: 1;"/></g><g class="points"/><g class="text"/></g><g class="trace scatter trace41a414" style="stroke-miterlimit: 2; opacity: 1;"><g class="fills"/><g class="errorbars"/><g class="lines"><path class="js-line" d="M561.85,192.78L533.23,561.85" style="vector-effect: none; fill: none; stroke: rgb(136, 136, 136); stroke-opacity: 0.8; stroke-width: 0.5px; opacity: 1;"/></g><g class="points"/><g class="text"/></g><g class="trace scatter trace798141" style="stroke-miterlimit: 2; opacity: 1;"><g class="fills"/><g class="errorbars"/><g class="lines"/><g class="points"><path class="point" transform="translate(397.17,215)" d="M5,0A5,5 0 1,1 0,-5A5,5 0 0,1 5,0Z" style="opacity: 1; stroke-width: 0px; fill: rgb(0, 0, 0); fill-opacity: 0;"/><path class="point" transform="translate(470.9,425.99)" d="M5,0A5,5 0 1,1 0,-5A5,5 0 0,1 5,0Z" style="opacity: 1; stroke-width: 0px; fill: rgb(0, 0, 0); fill-opacity: 0;"/><path class="point" transform="translate(222.36,286.96)" d="M5,0A5,5 0 1,1 0,-5A5,5 0 0,1 5,0Z" style="opacity: 1; stroke-width: 0px; fill: rgb(0, 0, 0); fill-opacity: 0;"/><path class="point" transform="translate(59.04,290.54)" d="M5,0A5,5 0 1,1 0,-5A5,5 0 0,1 5,0Z" style="opacity: 1; stroke-width: 0px; fill: rgb(0, 0, 0); fill-opacity: 0;"/><path class="point" transform="translate(43.78,337.23)" d="M5,0A5,5 0 1,1 0,-5A5,5 0 0,1 5,0Z" style="opacity: 1; stroke-width: 0px; fill: rgb(0, 0, 0); fill-opacity: 0;"/><path class="point" transform="translate(180.19,315.42)" d="M5,0A5,5 0 1,1 0,-5A5,5 0 0,1 5,0Z" style="opacity: 1; stroke-width: 0px; fill: rgb(0, 0, 0); fill-opacity: 0;"/><path class="point" transform="translate(75.88,207.94)" d="M5,0A5,5 0 1,1 0,-5A5,5 0 0,1 5,0Z" style="opacity: 1; stroke-width: 0px; fill: rgb(0, 0, 0); fill-opacity: 0;"/><path class="point" transform="translate(37.34,320.47)" d="M5,0A5,5 0 1,1 0,-5A5,5 0 0,1 5,0Z" style="opacity: 1; stroke-width: 0px; fill: rgb(0, 0, 0); fill-opacity: 0;"/><path class="point" transform="translate(209.8,288.42)" d="M5,0A5,5 0 1,1 0,-5A5,5 0 0,1 5,0Z" style="opacity: 1; stroke-width: 0px; fill: rgb(0, 0, 0); fill-opacity: 0;"/><path class="point" transform="translate(261.69,360.61)" d="M5,0A5,5 0 1,1 0,-5A5,5 0 0,1 5,0Z" style="opacity: 1; stroke-width: 0px; fill: rgb(0, 0, 0); fill-opacity: 0;"/><path class="point" transform="translate(383.63,270.93)" d="M5,0A5,5 0 1,1 0,-5A5,5 0 0,1 5,0Z" style="opacity: 1; stroke-width: 0px; fill: rgb(0, 0, 0); fill-opacity: 0;"/><path class="point" transform="translate(362.26,346.03)" d="M5,0A5,5 0 1,1 0,-5A5,5 0 0,1 5,0Z" style="opacity: 1; stroke-width: 0px; fill: rgb(0, 0, 0); fill-opacity: 0;"/><path class="point" transform="translate(396.02,291.58)" d="M5,0A5,5 0 1,1 0,-5A5,5 0 0,1 5,0Z" style="opacity: 1; stroke-width: 0px; fill: rgb(0, 0, 0); fill-opacity: 0;"/><path class="point" transform="translate(318.5,100.16)" d="M5,0A5,5 0 1,1 0,-5A5,5 0 0,1 5,0Z" style="opacity: 1; stroke-width: 0px; fill: rgb(0, 0, 0); fill-opacity: 0;"/><path class="point" transform="translate(372.08,228.6)" d="M5,0A5,5 0 1,1 0,-5A5,5 0 0,1 5,0Z" style="opacity: 1; stroke-width: 0px; fill: rgb(0, 0, 0); fill-opacity: 0;"/><path class="point" transform="translate(402.98,157.6)" d="M5,0A5,5 0 1,1 0,-5A5,5 0 0,1 5,0Z" style="opacity: 1; stroke-width: 0px; fill: rgb(0, 0, 0); fill-opacity: 0;"/><path class="point" transform="translate(238.15,148.12)" d="M5,0A5,5 0 1,1 0,-5A5,5 0 0,1 5,0Z" style="opacity: 1; stroke-width: 0px; fill: rgb(0, 0, 0); fill-opacity: 0;"/><path class="point" transform="translate(288.79,90.42)" d="M5,0A5,5 0 1,1 0,-5A5,5 0 0,1 5,0Z" style="opacity: 1; stroke-width: 0px; fill: rgb(0, 0, 0); fill-opacity: 0;"/><path class="point" transform="translate(360.78,93.59)" d="M5,0A5,5 0 1,1 0,-5A5,5 0 0,1 5,0Z" style="opacity: 1; stroke-width: 0px; fill: rgb(0, 0, 0); fill-opacity: 0;"/><path class="point" transform="translate(426.92,220.58)" d="M5,0A5,5 0 1,1 0,-5A5,5 0 0,1 5,0Z" style="opacity: 1; stroke-width: 0px; fill: rgb(0, 0, 0); fill-opacity: 0;"/><path class="point" transform="translate(503.56,171.91)" d="M5,0A5,5 0 1,1 0,-5A5,5 0 0,1 5,0Z" style="opacity: 1; stroke-width: 0px; fill: rgb(0, 0, 0); fill-opacity: 0;"/><path class="point" transform="translate(373.27,147.86)" d="M5,0A5,5 0 1,1 0,-5A5,5 0 0,1 5,0Z" style="opacity: 1; stroke-width: 0px; fill: rgb(0, 0, 0); fill-opacity: 0;"/><path class="point" transform="translate(92.32,197.91)" d="M5,0A5,5 0 1,1 0,-5A5,5 0 0,1 5,0Z" style="opacity: 1; stroke-width: 0px; fill: rgb(0, 0, 0); fill-opacity: 0;"/><path class="point" transform="translate(226.42,256.29)" d="M5,0A5,5 0 1,1 0,-5A5,5 0 0,1 5,0Z" style="opacity: 1; stroke-width: 0px; fill: rgb(0, 0, 0); fill-opacity: 0;"/><path class="point" transform="translate(331.04,88.02)" d="M5,0A5,5 0 1,1 0,-5A5,5 0 0,1 5,0Z" style="opacity: 1; stroke-width: 0px; fill: rgb(0, 0, 0); fill-opacity: 0;"/><path class="point" transform="translate(384.79,194.35)" d="M5,0A5,5 0 1,1 0,-5A5,5 0 0,1 5,0Z" style="opacity: 1; stroke-width: 0px; fill: rgb(0, 0, 0); fill-opacity: 0;"/><path class="point" transform="translate(415.52,145.46)" d="M5,0A5,5 0 1,1 0,-5A5,5 0 0,1 5,0Z" style="opacity: 1; stroke-width: 0px; fill: rgb(0, 0, 0); fill-opacity: 0;"/><path class="point" transform="translate(343.53,142.28)" d="M5,0A5,5 0 1,1 0,-5A5,5 0 0,1 5,0Z" style="opacity: 1; stroke-width: 0px; fill: rgb(0, 0, 0); fill-opacity: 0;"/><path class="point" transform="translate(146.1,191.55)" d="M5,0A5,5 0 1,1 0,-5A5,5 0 0,1 5,0Z" style="opacity: 1; stroke-width: 0px; fill: rgb(0, 0, 0); fill-opacity: 0;"/><path class="point" transform="translate(258.83,325.03)" d="M5,0A5,5 0 1,1 0,-5A5,5 0 0,1 5,0Z" style="opacity: 1; stroke-width: 0px; fill: rgb(0, 0, 0); fill-opacity: 0;"/><path class="point" transform="translate(280.2,249.93)" d="M5,0A5,5 0 1,1 0,-5A5,5 0 0,1 5,0Z" style="opacity: 1; stroke-width: 0px; fill: rgb(0, 0, 0); fill-opacity: 0;"/><path class="point" transform="translate(122.82,257.39)" d="M5,0A5,5 0 1,1 0,-5A5,5 0 0,1 5,0Z" style="opacity: 1; stroke-width: 0px; fill: rgb(0, 0, 0); fill-opacity: 0;"/><path class="point" transform="translate(326.2,356.27)" d="M5,0A5,5 0 1,1 0,-5A5,5 0 0,1 5,0Z" style="opacity: 1; stroke-width: 0px; fill: rgb(0, 0, 0); fill-opacity: 0;"/><path class="point" transform="translate(437.14,480.44)" d="M5,0A5,5 0 1,1 0,-5A5,5 0 0,1 5,0Z" style="opacity: 1; stroke-width: 0px; fill: rgb(0, 0, 0); fill-opacity: 0;"/><path class="point" transform="translate(412.95,381.55)" d="M5,0A5,5 0 1,1 0,-5A5,5 0 0,1 5,0Z" style="opacity: 1; stroke-width: 0px; fill: rgb(0, 0, 0); fill-opacity: 0;"/><path class="point" transform="translate(189.79,378.08)" d="M5,0A5,5 0 1,1 0,-5A5,5 0 0,1 5,0Z" style="opacity: 1; stroke-width: 0px; fill: rgb(0, 0, 0); fill-opacity: 0;"/><path class="point" transform="translate(306.31,229.1)" d="M5,0A5,5 0 1,1 0,-5A5,5 0 0,1 5,0Z" style="opacity: 1; stroke-width: 0px; fill: rgb(0, 0, 0); fill-opacity: 0;"/><path class="point" transform="translate(359.96,301.82)" d="M5,0A5,5 0 1,1 0,-5A5,5 0 0,1 5,0Z" style="opacity: 1; stroke-width: 0px; fill: rgb(0, 0, 0); fill-opacity: 0;"/><path class="point" transform="translate(465.05,257.56)" d="M5,0A5,5 0 1,1 0,-5A5,5 0 0,1 5,0Z" style="opacity: 1; stroke-width: 0px; fill: rgb(0, 0, 0); fill-opacity: 0;"/><path class="point" transform="translate(509.04,462.97)" d="M5,0A5,5 0 1,1 0,-5A5,5 0 0,1 5,0Z" style="opacity: 1; stroke-width: 0px; fill: rgb(0, 0, 0); fill-opacity: 0;"/><path class="point" transform="translate(120.5,165.7)" d="M5,0A5,5 0 1,1 0,-5A5,5 0 0,1 5,0Z" style="opacity: 1; stroke-width: 0px; fill: rgb(0, 0, 0); fill-opacity: 0;"/><path class="point" transform="translate(81.96,278.23)" d="M5,0A5,5 0 1,1 0,-5A5,5 0 0,1 5,0Z" style="opacity: 1; stroke-width: 0px; fill: rgb(0, 0, 0); fill-opacity: 0;"/><path class="point" transform="translate(343.62,196.06)" d="M5,0A5,5 0 1,1 0,-5A5,5 0 0,1 5,0Z" style="opacity: 1; stroke-width: 0px; fill: rgb(0, 0, 0); fill-opacity: 0;"/><path class="point" transform="translate(195.95,84.11)" d="M5,0A5,5 0 1,1 0,-5A5,5 0 0,1 5,0Z" style="opacity: 1; stroke-width: 0px; fill: rgb(0, 0, 0); fill-opacity: 0;"/><path class="point" transform="translate(208.44,138.38)" d="M5,0A5,5 0 1,1 0,-5A5,5 0 0,1 5,0Z" style="opacity: 1; stroke-width: 0px; fill: rgb(0, 0, 0); fill-opacity: 0;"/><path class="point" transform="translate(285.88,459.5)" d="M5,0A5,5 0 1,1 0,-5A5,5 0 0,1 5,0Z" style="opacity: 1; stroke-width: 0px; fill: rgb(0, 0, 0); fill-opacity: 0;"/><path class="point" transform="translate(472.83,220.81)" d="M5,0A5,5 0 1,1 0,-5A5,5 0 0,1 5,0Z" style="opacity: 1; stroke-width: 0px; fill: rgb(0, 0, 0); fill-opacity: 0;"/><path class="point" transform="translate(419.08,114.47)" d="M5,0A5,5 0 1,1 0,-5A5,5 0 0,1 5,0Z" style="opacity: 1; stroke-width: 0px; fill: rgb(0, 0, 0); fill-opacity: 0;"/><path class="point" transform="translate(547.54,377.32)" d="M5,0A5,5 0 1,1 0,-5A5,5 0 0,1 5,0Z" style="opacity: 1; stroke-width: 0px; fill: rgb(0, 0, 0); fill-opacity: 0;"/></g><g class="text"/></g><g class="trace scatter trace95582e" style="stroke-miterlimit: 2; opacity: 1;"><g class="fills"/><g class="errorbars"/><g class="lines"/><g class="points"><path class="point" transform="translate(408.58,290.12)" d="M5,0A5,5 0 1,1 0,-5A5,5 0 0,1 5,0Z" style="opacity: 1; stroke-width: 0px; fill: rgb(206, 72, 60); fill-opacity: 1;"/><path class="point" transform="translate(49.04,317.33)" d="M5,0A5,5 0 1,1 0,-5A5,5 0 0,1 5,0Z" style="opacity: 1; stroke-width: 0px; fill: rgb(220, 220, 220); fill-opacity: 1;"/><path class="point" transform="translate(36.15,283.8)" d="M5,0A5,5 0 1,1 0,-5A5,5 0 0,1 5,0Z" style="opacity: 1; stroke-width: 0px; fill: rgb(245, 186, 144); fill-opacity: 1;"/><path class="point" transform="translate(38.52,357.14)" d="M5,0A5,5 0 1,1 0,-5A5,5 0 0,1 5,0Z" style="opacity: 1; stroke-width: 0px; fill: rgb(206, 72, 60); fill-opacity: 1;"/><path class="point" transform="translate(383.46,293.03)" d="M5,0A5,5 0 1,1 0,-5A5,5 0 0,1 5,0Z" style="opacity: 1; stroke-width: 0px; fill: rgb(234, 135, 92); fill-opacity: 1;"/><path class="point" transform="translate(360.7,164.17)" d="M5,0A5,5 0 1,1 0,-5A5,5 0 0,1 5,0Z" style="opacity: 1; stroke-width: 0px; fill: rgb(245, 186, 144); fill-opacity: 1;"/><path class="point" transform="translate(276.3,36.15)" d="M5,0A5,5 0 1,1 0,-5A5,5 0 0,1 5,0Z" style="opacity: 1; stroke-width: 0px; fill: rgb(206, 72, 60); fill-opacity: 1;"/><path class="point" transform="translate(445.26,151.04)" d="M5,0A5,5 0 1,1 0,-5A5,5 0 0,1 5,0Z" style="opacity: 1; stroke-width: 0px; fill: rgb(178, 10, 28); fill-opacity: 1;"/><path class="point" transform="translate(69.04,263.75)" d="M5,0A5,5 0 1,1 0,-5A5,5 0 0,1 5,0Z" style="opacity: 1; stroke-width: 0px; fill: rgb(245, 186, 144); fill-opacity: 1;"/><path class="point" transform="translate(385.77,139.88)" d="M5,0A5,5 0 1,1 0,-5A5,5 0 0,1 5,0Z" style="opacity: 1; stroke-width: 0px; fill: rgb(234, 135, 92); fill-opacity: 1;"/><path class="point" transform="translate(176.6,251.03)" d="M5,0A5,5 0 1,1 0,-5A5,5 0 0,1 5,0Z" style="opacity: 1; stroke-width: 0px; fill: rgb(245, 186, 144); fill-opacity: 1;"/><path class="point" transform="translate(341.06,399.02)" d="M5,0A5,5 0 1,1 0,-5A5,5 0 0,1 5,0Z" style="opacity: 1; stroke-width: 0px; fill: rgb(206, 72, 60); fill-opacity: 1;"/><path class="point" transform="translate(311.33,313.52)" d="M5,0A5,5 0 1,1 0,-5A5,5 0 0,1 5,0Z" style="opacity: 1; stroke-width: 0px; fill: rgb(245, 186, 144); fill-opacity: 1;"/><path class="point" transform="translate(484.85,364.08)" d="M5,0A5,5 0 1,1 0,-5A5,5 0 0,1 5,0Z" style="opacity: 1; stroke-width: 0px; fill: rgb(245, 186, 144); fill-opacity: 1;"/><path class="point" transform="translate(125.39,199.33)" d="M5,0A5,5 0 1,1 0,-5A5,5 0 0,1 5,0Z" style="opacity: 1; stroke-width: 0px; fill: rgb(220, 220, 220); fill-opacity: 1;"/><path class="point" transform="translate(115.6,132.07)" d="M5,0A5,5 0 1,1 0,-5A5,5 0 0,1 5,0Z" style="opacity: 1; stroke-width: 0px; fill: rgb(178, 10, 28); fill-opacity: 1;"/><path class="point" transform="translate(533.23,561.85)" d="M5,0A5,5 0 1,1 0,-5A5,5 0 0,1 5,0Z" style="opacity: 1; stroke-width: 0px; fill: rgb(234, 135, 92); fill-opacity: 1;"/><path class="point" transform="translate(383.81,248.83)" d="M5,0A5,5 0 1,1 0,-5A5,5 0 0,1 5,0Z" style="opacity: 1; stroke-width: 0px; fill: rgb(234, 135, 92); fill-opacity: 1;"/><path class="point" transform="translate(301.28,144.68)" d="M5,0A5,5 0 1,1 0,-5A5,5 0 0,1 5,0Z" style="opacity: 1; stroke-width: 0px; fill: rgb(234, 135, 92); fill-opacity: 1;"/><path class="point" transform="translate(561.85,192.78)" d="M5,0A5,5 0 1,1 0,-5A5,5 0 0,1 5,0Z" style="opacity: 1; stroke-width: 0px; fill: rgb(234, 135, 92); fill-opacity: 1;"/></g><g class="text"/></g></g></g></g><path class="xlines-above crisp" d="M0,0" style="fill: none;"/><path class="ylines-above crisp" d="M0,0" style="fill: none;"/><g class="overlines-above"/><g class="xaxislayer-above"/><g class="yaxislayer-above"/><g class="overaxes-above"/></g></g><g class="polarlayer"/><g class="smithlayer"/><g class="ternarylayer"/><g class="geolayer"/><g class="funnelarealayer"/><g class="pielayer"/><g class="iciclelayer"/><g class="treemaplayer"/><g class="sunburstlayer"/><g class="glimages"/><defs id="topdefs-d43892"><g class="clips"/></defs><g class="layer-above"><g class="imagelayer"/><g class="shapelayer"/></g><g class="infolayer"><g class="g-gtitle"/><g class="g-xtitle"/><g class="g-ytitle"/></g></svg>